<?xml version="1.0" standalone="no"?>
<!DOCTYPE svg PUBLIC "-//W3C//DTD SVG 20010904//EN"
 "http://www.w3.org/TR/2001/REC-SVG-20010904/DTD/svg10.dtd">
<svg version="1.0" xmlns="http://www.w3.org/2000/svg"
 width="280.000000pt" height="280.000000pt" viewBox="0 0 280.000000 280.000000"
 preserveAspectRatio="xMidYMid meet">
<metadata>
Created by potrace 1.14, written by Peter Selinger 2001-2017
</metadata>
<g transform="translate(0.000000,280.000000) scale(0.100000,-0.100000)"
fill="#000000" stroke="none">
<path d="M0 1400 l0 -1400 1400 0 1400 0 0 1400 0 1400 -1400 0 -1400 0 0
-1400z m1915 628 c0 -114 -1 -123 -20 -129 -11 -4 -162 -7 -335 -7 l-315 -1
-3 -175 -2 -176 315 0 316 0 -3 -121 -3 -121 -296 2 c-162 0 -303 -2 -312 -6
-15 -5 -17 -27 -17 -190 l0 -184 345 0 345 0 0 -125 0 -125 -520 0 -520 0 0
125 0 125 50 0 49 0 0 463 c0 254 -2 473 -5 487 -5 23 -10 25 -50 24 l-44 -2
0 129 0 129 513 0 512 0 0 -122z"/>
</g>
</svg>
